<svg xmlns="http://www.w3.org/2000/svg" xmlns:xlink="http://www.w3.org/1999/xlink" width="120" zoomAndPan="magnify" viewBox="0 0 90 89.999999" height="120" preserveAspectRatio="xMidYMid meet" version="1.0"><defs><g/><clipPath id="50c72d5394"><path d="M 1.160156 1.160156 L 88.839844 1.160156 L 88.839844 88.839844 L 1.160156 88.839844 Z M 1.160156 1.160156 " clip-rule="nonzero"/></clipPath><clipPath id="535f460dab"><path d="M 45 1.160156 C 20.789062 1.160156 1.160156 20.789062 1.160156 45 C 1.160156 69.210938 20.789062 88.839844 45 88.839844 C 69.210938 88.839844 88.839844 69.210938 88.839844 45 C 88.839844 20.789062 69.210938 1.160156 45 1.160156 Z M 45 1.160156 " clip-rule="nonzero"/></clipPath></defs><g clip-path="url(#50c72d5394)"><g clip-path="url(#535f460dab)"><path fill="#48adff" d="M 1.160156 1.160156 L 88.839844 1.160156 L 88.839844 88.839844 L 1.160156 88.839844 Z M 1.160156 1.160156 " fill-opacity="1" fill-rule="nonzero"/></g></g><g fill="#ffffff" fill-opacity="1"><g transform="translate(15.940096, 60.504848)"><g><path d="M 51.859375 -39.035156 C 44.648438 -47.53125 33.105469 -46.652344 23.566406 -43.125 C 18.277344 -41.199219 13.066406 -38.554688 8.738281 -34.789062 C 5.289062 -31.820312 0.242188 -26.933594 3.207031 -22.203125 C 4.648438 -19.957031 8.015625 -20.28125 6.171875 -23.246094 C 6.171875 -23.324219 7.054688 -24.847656 7.214844 -25.089844 C 7.695312 -25.890625 8.257812 -26.613281 8.816406 -27.332031 C 9.9375 -28.777344 11.300781 -30.136719 12.746094 -31.339844 C 15.628906 -33.746094 18.917969 -35.667969 22.363281 -37.273438 C 29.335938 -40.480469 38.316406 -43.605469 45.769531 -40.15625 C 53.222656 -36.632812 52.261719 -27.652344 49.054688 -21.402344 C 45.609375 -14.828125 39.195312 -9.539062 32.464844 -6.652344 C 30.699219 -5.851562 28.855469 -5.128906 27.011719 -4.808594 C 26.128906 -4.570312 25.25 -4.488281 24.289062 -4.570312 C 23.164062 -4.648438 22.765625 -4.808594 23.003906 -6.011719 C 23.644531 -10.101562 27.492188 -13.785156 30.941406 -15.710938 C 32.945312 -16.832031 29.496094 -20.761719 27.894531 -19.878906 C 27.171875 -19.398438 26.371094 -18.917969 25.648438 -18.4375 C 27.332031 -22.925781 29.175781 -27.332031 31.179688 -31.660156 C 31.980469 -33.34375 27.972656 -36.710938 27.011719 -34.707031 C 20.117188 -19.71875 15.230469 -3.925781 12.664062 12.34375 C 12.34375 14.1875 16.433594 17.3125 16.753906 15.308594 C 17.792969 9.21875 19.078125 3.125 20.679688 -2.886719 C 21.882812 -1.601562 23.566406 -0.722656 25.410156 -0.402344 C 29.738281 0.320312 34.46875 -1.761719 38.152344 -3.765625 C 42.644531 -6.171875 46.730469 -9.378906 49.855469 -13.386719 C 55.707031 -20.601562 58.433594 -31.339844 51.859375 -39.035156 Z M 51.859375 -39.035156 "/></g></g></g></svg>